<svg xmlns="http://www.w3.org/2000/svg" viewBox="0 0 880 600" width="880" height="600" font-family="ui-monospace, SFMono-Regular, Menlo, Consolas, monospace" role="img" aria-label="jusTokenMax as a Claude Code plugin: install it, let Claude build a project (files auto-compressed), and the measured token-reduction results">
  <rect width="880" height="600" rx="12" fill="#000000" stroke="#3a3a3a"/>
  <!-- title bar -->
  <rect width="880" height="34" rx="12" fill="#0c0c0c"/>
  <rect y="22" width="880" height="12" fill="#0c0c0c"/>
  <circle cx="22" cy="17" r="6" fill="#ff5f56"/>
  <circle cx="42" cy="17" r="6" fill="#ffbd2e"/>
  <circle cx="62" cy="17" r="6" fill="#27c93f"/>
  <text x="440" y="21" text-anchor="middle" font-size="12" fill="#777">Claude Code — jusTokenMax plugin</text>

  <g font-size="13.5">
    <text x="22" y="62" fill="#9aa0a6"># install the plugin (one slash command per line)</text>
    <text x="22" y="84"><tspan fill="#6e7681">&#8250; </tspan><tspan fill="#ffffff">/plugin marketplace add github.com/Kalmantic/jusTokenMax</tspan></text>
    <text x="22" y="104"><tspan fill="#6e7681">&#8250; </tspan><tspan fill="#ffffff">/plugin install justokenmax@justokenmax</tspan></text>
    <text x="22" y="124" fill="#9aa0a6">  <tspan fill="#fff">&#10003;</tspan> Read hook active — every file Claude reads is auto-compressed</text>

    <text x="22" y="152" fill="#9aa0a6"># Claude builds the InvestWatch dashboard, reading your data:</text>
    <text x="22" y="172" fill="#9aa0a6">    news.json   <tspan fill="#fff">154k &#8594; 0.8k</tspan>      holdings.csv  <tspan fill="#fff">2k &#8594; 0.3k</tspan></text>
    <text x="22" y="192" fill="#9aa0a6">    market.csv  <tspan fill="#fff">176k &#8594; 0.5k</tspan>      build.log     <tspan fill="#fff">58k &#8594; 0.5k</tspan></text>

    <text x="22" y="220"><tspan fill="#6e7681">&#8250; </tspan><tspan fill="#ffffff">justokenmax stats</tspan></text>
    <text x="22" y="240" fill="#9aa0a6">  <tspan fill="#ffffff">532,789 &#8594; 117,354</tspan> tokens this build  <tspan fill="#ffffff">(-77%)</tspan></text>
  </g>

  <line x1="22" y1="262" x2="858" y2="262" stroke="#2a2a2a"/>
  <text x="22" y="286" font-size="12" letter-spacing="1.5" fill="#9aa0a6">TOKEN REDUCTION  ·  measured</text>

  <!-- bar chart: track x=300 width=430 (=100%) -->
  <g font-size="13" fill="#cfcfcf">
    <text x="22" y="308" font-size="11" letter-spacing="1" fill="#7d8590">REAL-WORLD TASKS (whole project, one pass)</text>
    <g>
      <text x="22" y="334">Extend a website codebase</text>
      <rect x="300" y="323" width="430" height="15" fill="#171717"/>
      <rect x="300" y="323" width="258" height="15" fill="#e6e6e6"><animate attributeName="width" from="0" to="258" dur="0.9s" begin="0.1s" fill="freeze"/></rect>
      <text x="742" y="334" fill="#ffffff" font-weight="bold">-60%</text>
    </g>
    <g>
      <text x="22" y="364">Build a project from a PRD *</text>
      <rect x="300" y="353" width="430" height="15" fill="#171717"/>
      <rect x="300" y="353" width="331" height="15" fill="#e6e6e6"><animate attributeName="width" from="0" to="331" dur="0.9s" begin="0.2s" fill="freeze"/></rect>
      <text x="742" y="364" fill="#ffffff" font-weight="bold">-77%</text>
    </g>

    <text x="22" y="398" font-size="11" letter-spacing="1" fill="#7d8590">SINGLE INPUTS</text>
    <g>
      <text x="22" y="424">PDF &#8594; Markdown</text>
      <rect x="300" y="413" width="430" height="15" fill="#171717"/>
      <rect x="300" y="413" width="241" height="15" fill="#bdbdbd"><animate attributeName="width" from="0" to="241" dur="0.9s" begin="0.3s" fill="freeze"/></rect>
      <text x="742" y="424" fill="#ffffff" font-weight="bold">-56%</text>
    </g>
    <g>
      <text x="22" y="454">Build / CI log</text>
      <rect x="300" y="443" width="430" height="15" fill="#171717"/>
      <rect x="300" y="443" width="426" height="15" fill="#bdbdbd"><animate attributeName="width" from="0" to="426" dur="0.9s" begin="0.4s" fill="freeze"/></rect>
      <text x="742" y="454" fill="#ffffff" font-weight="bold">-99%</text>
    </g>
    <g>
      <text x="22" y="484">JSON / API response</text>
      <rect x="300" y="473" width="430" height="15" fill="#171717"/>
      <rect x="300" y="473" width="426" height="15" fill="#bdbdbd"><animate attributeName="width" from="0" to="426" dur="0.9s" begin="0.5s" fill="freeze"/></rect>
      <text x="742" y="484" fill="#ffffff" font-weight="bold">-99%</text>
    </g>
    <g>
      <text x="22" y="514">CSV (5,000 rows)</text>
      <rect x="300" y="503" width="430" height="15" fill="#171717"/>
      <rect x="300" y="503" width="426" height="15" fill="#bdbdbd"><animate attributeName="width" from="0" to="426" dur="0.9s" begin="0.6s" fill="freeze"/></rect>
      <text x="742" y="514" fill="#ffffff" font-weight="bold">-99%</text>
    </g>
    <g>
      <text x="22" y="544">Find a symbol vs read file</text>
      <rect x="300" y="533" width="430" height="15" fill="#171717"/>
      <rect x="300" y="533" width="417" height="15" fill="#bdbdbd"><animate attributeName="width" from="0" to="417" dur="0.9s" begin="0.7s" fill="freeze"/></rect>
      <text x="742" y="544" fill="#ffffff" font-weight="bold">-97%</text>
    </g>
  </g>

  <text x="22" y="580" font-size="11" fill="#6e7681">* whole task, one pass; reproduce it in docs/try-it.md &amp; examples/investment-tracker  ·  github.com/Kalmantic/jusTokenMax</text>
</svg>
